solid OpenSCAD_Model
  facet normal 0 -0 -1
    outer loop
      vertex 62.0889 100.794 0
      vertex 62.0889 -100.794 0
      vertex -62.0889 -100.794 0
    endloop
  endfacet
  facet normal 0 0 -1
    outer loop
      vertex -62.0889 100.794 0
      vertex 62.0889 100.794 0
      vertex -62.0889 -100.794 0
    endloop
  endfacet
  facet normal 0 0 1
    outer loop
      vertex -62.0889 -100.794 5
      vertex 62.0889 -100.794 5
      vertex 62.0889 100.794 5
    endloop
  endfacet
  facet normal 0 0 1
    outer loop
      vertex -62.0889 -100.794 5
      vertex 62.0889 100.794 5
      vertex -62.0889 100.794 5
    endloop
  endfacet
  facet normal 0 -1 0
    outer loop
      vertex 62.0889 -100.794 0
      vertex 62.0889 -100.794 5
      vertex -62.0889 -100.794 0
    endloop
  endfacet
  facet normal -0 -1 0
    outer loop
      vertex 62.0889 -100.794 5
      vertex -62.0889 -100.794 5
      vertex -62.0889 -100.794 0
    endloop
  endfacet
  facet normal -1 0 0
    outer loop
      vertex -62.0889 -100.794 0
      vertex -62.0889 -100.794 5
      vertex -62.0889 100.794 0
    endloop
  endfacet
  facet normal -1 0 0
    outer loop
      vertex -62.0889 -100.794 5
      vertex -62.0889 100.794 5
      vertex -62.0889 100.794 0
    endloop
  endfacet
  facet normal 0 1 0
    outer loop
      vertex -62.0889 100.794 0
      vertex -62.0889 100.794 5
      vertex 62.0889 100.794 0
    endloop
  endfacet
  facet normal -0 1 0
    outer loop
      vertex -62.0889 100.794 5
      vertex 62.0889 100.794 5
      vertex 62.0889 100.794 0
    endloop
  endfacet
  facet normal 1 0 -0
    outer loop
      vertex 62.0889 100.794 0
      vertex 62.0889 100.794 5
      vertex 62.0889 -100.794 0
    endloop
  endfacet
  facet normal 1 0 0
    outer loop
      vertex 62.0889 100.794 5
      vertex 62.0889 -100.794 5
      vertex 62.0889 -100.794 0
    endloop
  endfacet
endsolid OpenSCAD_Model
